# xmcd
#
# Track frame offsets:
#  150
#  11045
#  29422
#  43075
#  59595
#  70472
#  88917
#  105667
#  120575
#  139050
#  155447
#  171475
#  186675
#  198875
#  211225
#  226022
#  244167
#  259570
#  278072
#
# Disc length: 3848 seconds
#
# Revision: 0
# Processed by: cddbd v1.5.2PL0 Copyright (c) Steve Scherf et al.
# Submitted via: Collectorz.com_Music_Collector 6.11
#
DISCID=190f0613
DTITLE=Various Artist - Sony Music Country New Music Sampler Vol 6
DYEAR=1900
DGENRE=
TTITLE0=Ken Mellons - Workin' For The Weekend
TTITLE1=Patty Loveless - You Don't Even Know Who I Am
TTITLE2=Hank Williams Jr. - I Ain't Goin' Peacefuly
TTITLE3=Ty Herndon - What Mattered Most
TTITLE4=Larry Stewart - Rockin' The Rock
TTITLE5=Collin Raye - If I Were You
TTITLE6=Mary Chapin Carpenter - House Of Cards
TTITLE7=Wade Hayes - I'm Still Dancin' With You
TTITLE8=Rick Trevino - Looking For The Light
TTITLE9=Ricky Van Shelton - I Thought I Heard It All
TTITLE10=Boy Howdy - Bigger Fish To Fry
TTITLE11=Doug Stone - Faith In Me, Faith In You
TTITLE12=Sawyer Brown - This Time
TTITLE13=Tim McGraw - Refried Dreams
TTITLE14=Joe Diffie - I'm In Love With A Capital U
TTITLE15=Gibson/Miller Band - Johnny Get Your Gun
TTITLE16=James House - This Is Me Missing You
TTITLE17=Troy Cassar-Daly - End Of The Road
TTITLE18=Stacy Dean Campbell - Eight Feet High
EXTD=
EXTT0=
EXTT1=
EXTT2=
EXTT3=
EXTT4=
EXTT5=
EXTT6=
EXTT7=
EXTT8=
EXTT9=
EXTT10=
EXTT11=
EXTT12=
EXTT13=
EXTT14=
EXTT15=
EXTT16=
EXTT17=
EXTT18=
PLAYORDER=
